<svg focusable="false" xmlns="http://www.w3.org/2000/svg" viewBox="0 0 24 24">
  <path d="M19.4 12.3c-.1-.1-.3-.2-.4-.2-.1 0-.3 0-.4.1l-.3.3c0 .1.1.2.1.3v.3c0 .4-.1.6-.3.8-.2.2-.5.3-.8.3-.6 0-1.1-.8-1.4-2.3-.1-.4-.1-.8-.2-1-.2-.9-.5-1.5-1-1.9-.5-.4-1.1-.7-1.9-.7-.6 0-1.1.2-1.5.5-.4.3-.6.8-.6 1.3 0 .2 0 .4.1.7.1.2.2.5.3.8-.4-.4-.7-.6-1.1-.8-.4-.2-.8-.3-1.3-.3-.2-.5-.6-.9-1.3-1.3-.1 0-.1-.1-.2-.1-.2-.1-.4-.3-.5-.5s-.1-.3-.1-.5c0-.1 0-.2.1-.3 0-.1.1-.2.2-.3-.5 0-.9.1-1.2.3-.3.2-.5.5-.5.9 0 .3.1.5.3.7.2.1.5.2.9.4.1 0 .2 0 .3.1.7.2 1.2.4 1.4.8-.9.2-1.6.5-2.1 1s-.9 1.2-1.1 2.1c-.1.1-.2.2-.3.4-.1.1-.1.3-.2.4l.4.2c.1.6.3 1 .6 1.3s.7.4 1.1.4c.4 0 .7-.1.9-.3.2-.2.4-.5.4-.9V15c0-.1 0-.2-.1-.3-.1.1-.3.3-.4.3-.1-.1-.3 0-.4 0-.2 0-.4-.1-.6-.2-.1-.2-.3-.4-.3-.7.9-.4 1.6-.8 2-1.3.4-.5.7-1.1.7-1.7.4 0 .8.1 1.1.3s.6.4.9.8c-.5.2-.8.4-1 .6-.2.3-.3.6-.3 1 0 .8.4 1.4 1.1 1.9.7.5 1.6.8 2.7.8.8 0 1.7-.2 2.6-.5.9-.4 1.9-1 3-1.8.3-.2.5-.5.7-.7.2-.2.2-.5.2-.7-.1-.2-.2-.3-.3-.5zm-11.8.1c-.4.4-1 .7-1.7.9.1-.7.4-1.2.7-1.6.4-.3.9-.5 1.6-.7 0 .6-.2 1.1-.6 1.4z" />
</svg>
